<svg id="e220f980-6625-48a7-982e-016f8a6af252" data-name="Layer 1" xmlns="http://www.w3.org/2000/svg" width="180.15" height="66" viewBox="0 0 180.15 66">
  <defs>
    <style>
      .a398ceb0-84b3-4646-9d76-d13619a25ce3 {
        fill: #00529c;
      }

      .b11f244a-c4b4-4574-ac7e-587ab5e2061b {
        fill: #f27024;
      }
    </style>
  </defs>
  <title>Payment Gateway_BRIVA</title>
  <g>
    <path class="a398ceb0-84b3-4646-9d76-d13619a25ce3" d="M0,43.57V0H17.54a48.8,48.8,0,0,1,7.6.43A11.28,11.28,0,0,1,33.24,6a10.3,10.3,0,0,1,1.38,5.26,10.65,10.65,0,0,1-5,9.07,11.29,11.29,0,0,1,4.92,3.59,10.87,10.87,0,0,1,2.2,6.76,13.31,13.31,0,0,1-1.4,5.89,12,12,0,0,1-3.87,4.59,12.79,12.79,0,0,1-6,2.11c-1.46.16-4.85.26-10.38.29H0Zm17.08-8.34A37.64,37.64,0,0,0,22.82,35a4.64,4.64,0,0,0,2.78-1.5,4.57,4.57,0,0,0,1-3.2,4.9,4.9,0,0,0-.82-2.89,4.62,4.62,0,0,0-2.37-1.71c-1.1-.38-3.58-.57-7.39-.57H9.77V35.23ZM14.77,16.85c3.3,0,5.36-.05,6.14-.14A5.11,5.11,0,0,0,24,15.36a3.84,3.84,0,0,0,1.08-2.88,4.05,4.05,0,0,0-.93-2.79A4.36,4.36,0,0,0,21.31,8.4c-.81-.09-3.25-.14-7.23-.14H9.77v8.59Z"/>
    <path class="a398ceb0-84b3-4646-9d76-d13619a25ce3" d="M71.66,43.57l-6.37-9.48a61.31,61.31,0,0,0-4.44-6.15,6.13,6.13,0,0,0-2.34-1.61,13.71,13.71,0,0,0-4.1-.44H53.28V43.57H43.52V0h18.6c4.65,0,7.95.39,10.08,1.18a10.35,10.35,0,0,1,5.23,4.3,12.86,12.86,0,0,1,1.94,7,11.94,11.94,0,0,1-3,8.28,13.22,13.22,0,0,1-7.19,3.83,19.66,19.66,0,0,1,3.38,2.82,50,50,0,0,1,4.94,7l5.75,9.18ZM59,17.92c5,0,6.84-.27,7.5-.49a4,4,0,0,0,2.09-1.56A4.93,4.93,0,0,0,69.35,13a4.45,4.45,0,0,0-1-3.06,4.63,4.63,0,0,0-2.87-1.46c-.44-.06-1.88-.14-6.14-.14H53.28v9.55Z"/>
    <rect class="a398ceb0-84b3-4646-9d76-d13619a25ce3" x="86.74" width="9.76" height="43.57"/>
    <polygon class="a398ceb0-84b3-4646-9d76-d13619a25ce3" points="115.2 43.57 99.62 0 110.19 0 120.47 30.07 130.42 0 140.79 0 125.18 43.57 115.2 43.57"/>
    <path class="a398ceb0-84b3-4646-9d76-d13619a25ce3" d="M169.15,43.57,165.46,34h-16.1l-3.5,9.62H135.48L152.45,0h9.87l17.45,43.57Zm-6.89-18-5-13.36L152.43,25.6Z"/>
    <g>
      <path class="b11f244a-c4b4-4574-ac7e-587ab5e2061b" d="M.07,50H6.39a18.8,18.8,0,0,1,2.8.16,4.11,4.11,0,0,1,1.65.65,4.06,4.06,0,0,1,1.21,1.32,3.53,3.53,0,0,1,.49,1.85,3.75,3.75,0,0,1-2.22,3.43,4.16,4.16,0,0,1,2.22,1.44,3.83,3.83,0,0,1,.77,2.38,4.63,4.63,0,0,1-.5,2.1,4.21,4.21,0,0,1-1.37,1.63,4.66,4.66,0,0,1-2.14.75c-.53,0-1.81.09-3.85.1H.07ZM3.26,52.6v3.65H5.35c1.25,0,2,0,2.32,0A2.15,2.15,0,0,0,9,55.63a1.67,1.67,0,0,0,.47-1.23A1.76,1.76,0,0,0,9,53.2a1.83,1.83,0,0,0-1.21-.55c-.31,0-1.22,0-2.72,0Zm0,6.28v4.23h3A13.61,13.61,0,0,0,8.41,63a1.93,1.93,0,0,0,1.16-.63A2,2,0,0,0,10,61a2.05,2.05,0,0,0-.34-1.21,1.93,1.93,0,0,0-1-.72,10.81,10.81,0,0,0-2.83-.23Z"/>
      <path class="b11f244a-c4b4-4574-ac7e-587ab5e2061b" d="M15.2,65.77V50h6.72a11.54,11.54,0,0,1,3.68.43,3.62,3.62,0,0,1,1.84,1.51,4.58,4.58,0,0,1,.69,2.5,4.23,4.23,0,0,1-1,2.93A5,5,0,0,1,24,58.8a7.43,7.43,0,0,1,1.71,1.32,18.53,18.53,0,0,1,1.82,2.57l1.93,3.08H25.6l-2.31-3.44A22.51,22.51,0,0,0,21.61,60a2.44,2.44,0,0,0-1-.66A5.21,5.21,0,0,0,19,59.17H18.4v6.6Zm3.2-9.12h2.36a12.33,12.33,0,0,0,2.87-.19,1.73,1.73,0,0,0,.89-.67,2,2,0,0,0,.32-1.19,1.93,1.93,0,0,0-.42-1.29,2,2,0,0,0-1.2-.62c-.26,0-1,0-2.33,0H18.4Z"/>
      <path class="b11f244a-c4b4-4574-ac7e-587ab5e2061b" d="M30.23,65.77V50h3.19V65.77Z"/>
      <path class="a398ceb0-84b3-4646-9d76-d13619a25ce3" d="M49.57,63l.31,1.1H50l.31-1.1,4.73-13h1.39l-5.85,15.7H49.3l-5.84-15.7h1.4Z"/>
      <path class="a398ceb0-84b3-4646-9d76-d13619a25ce3" d="M59,50.76H57.74V49H59Zm0,15H57.74V54.1H59Z"/>
      <path class="a398ceb0-84b3-4646-9d76-d13619a25ce3" d="M67.1,55.22l-.92-.07a2.93,2.93,0,0,0-2,.69,3.71,3.71,0,0,0-1.11,1.88v8h-1.3V54.1h1.14l.16,1.95v.13a4.26,4.26,0,0,1,1.36-1.69,3.4,3.4,0,0,1,2-.6,2.32,2.32,0,0,1,.46,0,2,2,0,0,1,.35.08Z"/>
      <path class="a398ceb0-84b3-4646-9d76-d13619a25ce3" d="M70.69,51.12v3h2.57v1.06H70.69v7.6a2.47,2.47,0,0,0,.42,1.63,1.4,1.4,0,0,0,1.11.48,3.29,3.29,0,0,0,.45,0l.53-.09.19,1a2.4,2.4,0,0,1-.64.21A4,4,0,0,1,72,66a2.43,2.43,0,0,1-1.92-.78,3.67,3.67,0,0,1-.68-2.46v-7.6h-2V54.1h2v-3Z"/>
      <path class="a398ceb0-84b3-4646-9d76-d13619a25ce3" d="M82.6,63.88a4,4,0,0,1-1.5,1.57,4.35,4.35,0,0,1-2.24.55A3.58,3.58,0,0,1,76,64.75a6,6,0,0,1-1-3.88V54.1h1.3v6.79A5,5,0,0,0,77,64a2.46,2.46,0,0,0,2.06.93,3.83,3.83,0,0,0,2.33-.65,3.48,3.48,0,0,0,1.22-1.79V54.1h1.29V65.77H82.71Z"/>
      <path class="a398ceb0-84b3-4646-9d76-d13619a25ce3" d="M93.83,65.77q-.12-.61-.18-1a6.85,6.85,0,0,1-.05-.91,4.78,4.78,0,0,1-1.7,1.57,5,5,0,0,1-2.5.62,3.67,3.67,0,0,1-2.66-.91,3.28,3.28,0,0,1-.94-2.48,3,3,0,0,1,1.37-2.53,6,6,0,0,1,3.56-1H93.6V57.66a2.51,2.51,0,0,0-.8-2A3.25,3.25,0,0,0,90.56,55a3.31,3.31,0,0,0-2.14.65,2,2,0,0,0-.81,1.62h-1.2l0-.06a2.74,2.74,0,0,1,1.13-2.31,5.33,5.33,0,0,1,6.19,0,3.46,3.46,0,0,1,1.17,2.82v5.73a9.44,9.44,0,0,0,.07,1.2,7.55,7.55,0,0,0,.23,1.15Zm-4.29-.91a4.66,4.66,0,0,0,2.58-.71,3.58,3.58,0,0,0,1.48-1.82V60.1H90.72a4.28,4.28,0,0,0-2.6.75,2.18,2.18,0,0,0-1,1.81,2.07,2.07,0,0,0,.65,1.59A2.53,2.53,0,0,0,89.54,64.86Z"/>
      <path class="a398ceb0-84b3-4646-9d76-d13619a25ce3" d="M99,65.77H97.66V49H99Z"/>
      <path class="a398ceb0-84b3-4646-9d76-d13619a25ce3" d="M114.77,61.4h-6.89l-1.58,4.37H105l5.77-15.7H112l5.72,15.7h-1.33Zm-6.48-1.16h6.06l-3-8.32h-.06Z"/>
      <path class="a398ceb0-84b3-4646-9d76-d13619a25ce3" d="M123.25,64.91a3.51,3.51,0,0,0,2.2-.73,2.44,2.44,0,0,0,1-2h1.15l0,.06a3.29,3.29,0,0,1-1.28,2.71,4.6,4.6,0,0,1-3,1.09,4.39,4.39,0,0,1-3.63-1.64,6.57,6.57,0,0,1-1.3-4.19v-.46a6.5,6.5,0,0,1,1.3-4.18,4.36,4.36,0,0,1,3.62-1.64A4.52,4.52,0,0,1,126.37,55a3.75,3.75,0,0,1,1.21,3l0,.06H126.4a2.9,2.9,0,0,0-.92-2.24,3.23,3.23,0,0,0-2.24-.83,3.06,3.06,0,0,0-2.73,1.35,5.94,5.94,0,0,0-.89,3.37v.46a6,6,0,0,0,.89,3.4A3.08,3.08,0,0,0,123.25,64.91Z"/>
      <path class="a398ceb0-84b3-4646-9d76-d13619a25ce3" d="M133.8,64.91a3.51,3.51,0,0,0,2.2-.73,2.44,2.44,0,0,0,.95-2h1.15l0,.06a3.29,3.29,0,0,1-1.28,2.71,4.6,4.6,0,0,1-3,1.09,4.39,4.39,0,0,1-3.63-1.64,6.57,6.57,0,0,1-1.3-4.19v-.46a6.5,6.5,0,0,1,1.3-4.18,4.36,4.36,0,0,1,3.62-1.64A4.52,4.52,0,0,1,136.92,55a3.75,3.75,0,0,1,1.21,3l0,.06H137a2.9,2.9,0,0,0-.92-2.24,3.23,3.23,0,0,0-2.24-.83,3.06,3.06,0,0,0-2.73,1.35,5.94,5.94,0,0,0-.89,3.37v.46a6,6,0,0,0,.89,3.4A3.08,3.08,0,0,0,133.8,64.91Z"/>
      <path class="a398ceb0-84b3-4646-9d76-d13619a25ce3" d="M139.36,59.77a6.28,6.28,0,0,1,1.41-4.23,5.08,5.08,0,0,1,7.49,0,6.24,6.24,0,0,1,1.42,4.23v.35a6.29,6.29,0,0,1-1.41,4.24,5.11,5.11,0,0,1-7.5,0,6.29,6.29,0,0,1-1.41-4.24Zm1.29.35a5.53,5.53,0,0,0,1,3.41,3.61,3.61,0,0,0,5.68,0,5.53,5.53,0,0,0,1-3.41v-.35a5.53,5.53,0,0,0-1-3.39A3.35,3.35,0,0,0,144.51,55a3.3,3.3,0,0,0-2.83,1.39,5.53,5.53,0,0,0-1,3.39Z"/>
      <path class="a398ceb0-84b3-4646-9d76-d13619a25ce3" d="M159.19,63.88a4,4,0,0,1-1.5,1.57,4.35,4.35,0,0,1-2.24.55,3.58,3.58,0,0,1-2.89-1.25,6,6,0,0,1-1.05-3.88V54.1h1.3v6.79a5,5,0,0,0,.73,3.06,2.46,2.46,0,0,0,2.06.93,3.78,3.78,0,0,0,2.32-.65,3.49,3.49,0,0,0,1.23-1.79V54.1h1.29V65.77H159.3Z"/>
      <path class="a398ceb0-84b3-4646-9d76-d13619a25ce3" d="M164.18,54.1l.12,2a4.06,4.06,0,0,1,3.77-2.24A3.61,3.61,0,0,1,171,55.05a5.49,5.49,0,0,1,1,3.62v7.1h-1.29V58.68a4.22,4.22,0,0,0-.75-2.84,2.73,2.73,0,0,0-2.13-.83,3.49,3.49,0,0,0-2.23.68,3.8,3.8,0,0,0-1.22,1.82v8.26H163V54.1Z"/>
      <path class="a398ceb0-84b3-4646-9d76-d13619a25ce3" d="M176.53,51.12v3h2.56v1.06h-2.56v7.6a2.54,2.54,0,0,0,.41,1.63,1.4,1.4,0,0,0,1.11.48,3.44,3.44,0,0,0,.46,0l.52-.09.19,1a2.29,2.29,0,0,1-.64.21,3.92,3.92,0,0,1-.76.08,2.39,2.39,0,0,1-1.91-.78,3.62,3.62,0,0,1-.69-2.46v-7.6h-2V54.1h2v-3Z"/>
    </g>
  </g>
</svg>
