<svg width="110" height="32" viewBox="0 0 110 32" fill="none" xmlns="http://www.w3.org/2000/svg">
<path fill-rule="evenodd" clip-rule="evenodd" d="M14.4709 0.0580549C9.17926 0.558511 4.89085 3.36036 2.28633 7.6852C0.593845 10.4953 -0.201732 13.8246 0.0436078 17.2413C0.64392 25.6 7.82722 32.6769 17.0215 31.9483C25.2709 31.2944 32.0773 23.8734 31.3801 14.7461C31.1247 11.4044 29.9632 8.65026 28.1015 6.16339C27.2585 5.03743 27.0923 5.01906 26.212 4.09726C25.1204 2.95383 22.8119 1.6412 21.3387 1.06045C19.3632 0.281468 16.8479 -0.166839 14.4709 0.0580549Z" fill="#108DE8"/>
<path fill-rule="evenodd" clip-rule="evenodd" d="M6.61353 11.337C6.41293 11.9163 6.53234 18.3571 6.53234 19.5518C6.53234 20.8442 6.27722 21.2478 8.2992 21.9394C13.6528 23.7702 18.954 17.5624 24.2774 20.6339C24.5242 20.7761 24.8247 21.0679 24.8952 20.5965L24.8973 12.311C24.8976 11.4197 24.9773 11.1406 24.3861 10.729C19.6225 7.41043 14.4647 13.0867 9.63109 12.45C7.8423 12.2144 7.10154 11.3018 6.61353 11.337Z" fill="white"/>
<path fill-rule="evenodd" clip-rule="evenodd" d="M43.3939 24.1099C45.4807 24.2589 47.9116 22.6405 48.7682 21.7137C51.7434 18.4938 51.8151 13.835 48.8201 10.4633C47.7048 9.20789 45.0938 7.82029 43.4282 8.01467L37.4136 8.01911L37.4121 24.0898L43.3939 24.1099ZM40.7908 20.6277C41.2338 20.7048 43.0534 20.676 43.5533 20.6301C47.6621 20.2544 49.1134 14.6365 45.6591 12.2832C45.0858 11.8924 44.4478 11.581 43.6108 11.4879C43.1524 11.4367 41.1944 11.405 40.7888 11.4782L40.7908 20.6277Z" fill="#108DE8"/>
<path fill-rule="evenodd" clip-rule="evenodd" d="M96.0728 24.14L99.4939 24.1385L99.4974 20.6747L106.286 20.6759L106.306 24.1388L109.725 24.1394C109.728 22.2146 109.726 20.3052 109.726 18.3961C109.726 16.6764 109.871 14.5235 109.447 12.9634C108.729 10.323 106.218 7.98135 102.914 7.96832C99.5739 7.95528 97.1495 10.2902 96.3756 12.8923C95.9175 14.4322 96.0704 16.6399 96.0704 18.3351C96.0704 20.267 96.0505 22.2093 96.0728 24.14ZM99.4971 17.1899L106.303 17.1929C106.319 15.7072 106.479 14.2633 105.812 13.1249C105.335 12.3107 104.329 11.4585 102.916 11.4526C101.474 11.4466 100.512 12.2647 99.9979 13.1083C99.3238 14.2147 99.4761 15.738 99.4971 17.1899Z" fill="#108DE8"/>
<path fill-rule="evenodd" clip-rule="evenodd" d="M56.9419 24.1361L60.3515 24.1391C60.3536 23.4161 60.2599 21.2001 60.3847 20.6747L67.1473 20.6756L67.1713 24.1367L70.5853 24.14C70.5676 22.2208 70.5839 20.3046 70.5839 18.3961C70.5839 16.7588 70.7356 14.4129 70.3065 12.9613C68.3527 6.35049 59.2566 6.30368 57.2379 12.8953C56.7807 14.388 56.9369 16.6725 56.9369 18.3351C56.9369 20.2537 56.893 22.2241 56.9419 24.1361ZM60.3536 17.1896L67.168 17.1931C67.1823 15.7291 67.3423 14.258 66.6738 13.1219C65.4506 11.0428 62.34 10.7435 60.8602 13.1119C60.1838 14.1945 60.3313 15.7641 60.3536 17.1896Z" fill="#108DE8"/>
<path fill-rule="evenodd" clip-rule="evenodd" d="M76.587 14.2916L76.5405 16.6922C76.5405 18.705 76.4404 22.4598 76.5476 24.0927L79.8911 24.0945C79.9688 22.9499 79.7702 14.7817 79.9821 14.5215C79.983 12.9342 81.6378 11.4583 83.3116 11.4521C84.3398 11.4482 85.0895 11.8666 85.6353 12.3632C86.0613 12.7511 86.7129 13.6347 86.7005 14.5298C86.8569 14.6178 86.7334 23.138 86.7825 24.0921L90.1296 24.0945L90.1029 14.3405C90.1865 13.5763 89.7263 12.3949 89.4312 11.7952C86.9535 6.75894 79.8416 6.69227 77.2934 11.7084C76.9948 12.2966 76.5165 13.5099 76.587 14.2916Z" fill="#108DE8"/>
<path fill-rule="evenodd" clip-rule="evenodd" d="M43.3928 24.1098L37.4111 24.0897L37.4126 8.01903L43.4272 8.01459C43.3179 7.8614 40.8085 7.95295 40.4568 7.95295C39.5818 7.95295 38.2004 7.87058 37.3871 7.96599C37.3104 8.222 37.279 23.7282 37.3818 24.146C37.9356 24.2174 41.7952 24.1623 43.0153 24.1652L43.3507 24.13C43.3614 24.127 43.3789 24.1166 43.3928 24.1098Z" fill="#79BBE7"/>
<path fill-rule="evenodd" clip-rule="evenodd" d="M86.6997 14.5297C86.7356 15.8444 86.6286 23.678 86.7513 24.1477L90.1594 24.1625C90.2482 23.7859 90.1934 17.6776 90.1934 16.7528C90.1934 16.3107 90.312 14.5741 90.1022 14.3403L90.1288 24.0943L86.7818 24.092C86.7326 23.1379 86.8562 14.6177 86.6997 14.5297Z" fill="#79BBE7"/>
<path fill-rule="evenodd" clip-rule="evenodd" d="M79.9816 14.5214C79.7698 14.7816 79.9683 22.9498 79.8907 24.0944L76.5472 24.0926C76.44 22.4597 76.5401 18.7049 76.5401 16.6922L76.5866 14.2915C76.3964 14.3742 76.4815 18.6528 76.4815 19.1867C76.4815 19.9642 76.389 23.7039 76.5221 24.1495L79.9283 24.162L79.9816 14.5214Z" fill="#79BBE7"/>
</svg>
