<svg width="120" height="44" viewBox="0 0 120 44" fill="none" xmlns="http://www.w3.org/2000/svg">
<g clip-path="url(#clip0)">
<path d="M21.5498 43.0997C33.4515 43.0997 43.0997 33.4515 43.0997 21.5499C43.0997 9.6482 33.4515 0 21.5498 0C9.6482 0 0 9.6482 0 21.5499C0 33.4515 9.6482 43.0997 21.5498 43.0997Z" fill="#01AED6"/>
<path d="M33.5396 19.6237C33.2826 18.6477 32.7272 17.7764 31.951 17.1313C31.1748 16.4863 30.2166 16.0997 29.2101 16.0255H14.6541C14.5121 16.0488 14.3667 16.0409 14.228 16.0024C14.0893 15.9638 13.9607 15.8956 13.851 15.8024C13.7413 15.7093 13.6532 15.5933 13.5928 15.4627C13.5323 15.3321 13.501 15.1899 13.501 15.046C13.501 14.902 13.5323 14.7598 13.5928 14.6292C13.6532 14.4986 13.7413 14.3827 13.851 14.2895C13.9607 14.1963 14.0893 14.1281 14.228 14.0896C14.3667 14.051 14.5121 14.0432 14.6541 14.0664H28.7921C28.7921 14.0664 28.7399 10.3115 23.9924 10.3115H16.3716C13.1064 10.3115 9.63887 12.0355 9.43643 16.2606C9.21748 19.7879 9.21748 23.3254 9.43643 26.8527C9.63887 29.308 10.318 32.1226 15.6924 32.5928C21.0668 33.0629 27.0159 32.8017 29.1056 32.3315C30.3118 32.0442 31.3938 31.377 32.1921 30.4282C32.9904 29.4794 33.4628 28.2992 33.5396 27.0616C33.7486 24.1165 34.062 21.7134 33.5396 19.6237ZM29.7325 24.2471V25.5531C29.7325 25.7887 29.6389 26.0146 29.4723 26.1811C29.3058 26.3477 29.0799 26.4413 28.8444 26.4413C28.6088 26.4413 28.3829 26.3477 28.2164 26.1811C28.0498 26.0146 27.9562 25.7887 27.9562 25.5531V24.2471C27.7424 24.0653 27.5894 23.8223 27.5181 23.5508C27.4467 23.2793 27.4604 22.9925 27.5572 22.7291C27.654 22.4656 27.8294 22.2382 28.0596 22.0776C28.2897 21.9169 28.5637 21.8308 28.8444 21.8308C29.125 21.8308 29.399 21.9169 29.6292 22.0776C29.8593 22.2382 30.0347 22.4656 30.1315 22.7291C30.2284 22.9925 30.242 23.2793 30.1707 23.5508C30.0993 23.8223 29.9463 24.0653 29.7325 24.2471Z" fill="white"/>
<path d="M70.1218 12.9043C66.2886 12.9043 63.1802 15.7841 63.1802 19.3431C63.1802 22.9021 66.2886 25.782 70.1218 25.782C73.9551 25.782 77.057 22.8956 77.057 19.3431C77.057 15.7907 73.9551 12.9043 70.1218 12.9043ZM70.1218 22.6997C69.1932 22.7333 68.289 22.3975 67.6073 21.766C66.9256 21.1345 66.5219 20.2586 66.4845 19.3301C66.5618 18.4186 66.9785 17.5694 67.6521 16.9505C68.3257 16.3316 69.2071 15.9882 70.1218 15.9882C71.0366 15.9882 71.918 16.3316 72.5916 16.9505C73.2652 17.5694 73.6819 18.4186 73.7592 19.3301C73.7432 19.7912 73.6363 20.2447 73.4447 20.6645C73.2531 21.0843 72.9806 21.4622 72.6427 21.7764C72.3047 22.0907 71.9081 22.3351 71.4756 22.4958C71.043 22.6565 70.583 22.7302 70.1218 22.7127V22.6997Z" fill="#080403"/>
<path d="M86.0822 12.9043C84.6669 12.9052 83.2968 13.402 82.2098 14.3083V13.2373H78.7291V30.216H82.2098V24.1102C83.2944 25.0213 84.6656 25.5208 86.0822 25.5208C87.7552 25.5208 89.3598 24.8561 90.5428 23.6731C91.7258 22.4901 92.3904 20.8856 92.3904 19.2125C92.3904 17.5395 91.7258 15.935 90.5428 14.7519C89.3598 13.5689 87.7552 12.9043 86.0822 12.9043ZM85.4292 22.6997C84.7262 22.6945 84.042 22.4721 83.4703 22.0629C82.8987 21.6537 82.4675 21.0778 82.2359 20.4141V18.011C82.4678 17.3479 82.8992 16.7729 83.4709 16.3648C84.0427 15.9568 84.7267 15.7357 85.4292 15.7319C86.3523 15.7319 87.2376 16.0986 87.8903 16.7513C88.5431 17.4041 88.9098 18.2894 88.9098 19.2125C88.9098 20.1356 88.5431 21.021 87.8903 21.6737C87.2376 22.3264 86.3523 22.6931 85.4292 22.6931V22.6997Z" fill="#080403"/>
<path d="M116.5 12.9043L112.543 20.9169L108.585 12.9043H105.092L110.793 24.4563L107.958 30.1964H111.459L112.543 27.9957L114.293 24.4563L120 12.9043H116.5Z" fill="#080403"/>
<path d="M61.5217 25.9051V13.0078H58.4394V14.1963C57.4968 13.532 56.3897 13.1394 55.2391 13.0614C54.0885 12.9834 52.9386 13.223 51.9148 13.7539C50.8911 14.2849 50.0329 15.0869 49.4339 16.0724C48.8349 17.0578 48.5181 18.1889 48.5181 19.3422C48.5181 20.4954 48.8349 21.6265 49.4339 22.612C50.0329 23.5974 50.8911 24.3994 51.9148 24.9304C52.9386 25.4614 54.0885 25.7009 55.2391 25.6229C56.3897 25.5449 57.4968 25.1523 58.4394 24.488V25.3957C58.4394 27.0087 56.8591 28.3082 54.9066 28.3082C54.2182 28.3426 53.5347 28.1756 52.9398 27.8276C52.3448 27.4797 51.8641 26.9659 51.5566 26.3491L48.9771 28.4192C49.6314 29.3642 50.5122 30.1301 51.5389 30.6469C52.5656 31.1637 53.7055 31.4148 54.8543 31.3774C58.4133 31.3774 61.3128 29.0592 61.463 26.1532V25.8985L61.5217 25.9051ZM55.1286 22.9012C54.4804 22.9019 53.8442 22.726 53.2885 22.3922C52.7328 22.0584 52.2786 21.5795 51.9747 21.0069C51.6709 20.4343 51.5289 19.7897 51.564 19.1424C51.5992 18.4951 51.8101 17.8697 52.1741 17.3333C52.5382 16.7969 53.0415 16.37 53.6301 16.0983C54.2187 15.8267 54.8702 15.7206 55.5145 15.7915C56.1588 15.8625 56.7716 16.1077 57.287 16.5009C57.8024 16.8941 58.2008 17.4203 58.4394 18.023V20.6352C58.1794 21.302 57.7244 21.8749 57.1338 22.2791C56.5431 22.6834 55.8443 22.9002 55.1286 22.9012Z" fill="#080403"/>
<path d="M98.9592 12.9043C94.6101 12.9043 93.2126 15.7058 92.6641 16.8225L95.5831 17.5147C95.5831 17.5147 95.8965 15.3989 99.0311 15.3989C102.166 15.3989 101.741 17.5147 98.8221 17.8999C95.9031 18.2852 92.6641 18.9905 92.6641 21.7267C92.6641 24.0972 94.7146 25.4489 97.5683 25.4489C100.422 25.4489 101.428 23.7772 101.428 23.7772V25.4489H104.484V17.3579C104.484 15.4837 103.308 12.9043 98.9592 12.9043ZM97.7054 22.8956C94.9562 22.8956 95.3088 20.7667 96.8695 20.5969C98.8286 20.3749 100.559 20.068 101.499 19.1668C101.499 21.2565 100.455 22.8956 97.7054 22.8956Z" fill="#080403"/>
</g>
<defs>
<clipPath id="clip0">
<rect width="120" height="43.0997" fill="white"/>
</clipPath>
</defs>
</svg>
