<svg xmlns="http://www.w3.org/2000/svg" viewBox="0 0 197 66"><defs><style>.a{fill:#f0f0f0;}.a,.b,.d,.e,.f{fill-rule:evenodd;}.b{fill:#fecf22;}.c,.f{fill:#006ab4;}.d{fill:#d61627;}.e{fill:#e6e6e6;}</style></defs><title>Payment Gateway</title><path class="a" d="M5.68,0H191a5.7,5.7,0,0,1,5.68,5.68V60.32A5.7,5.7,0,0,1,191,66H5.68A5.7,5.7,0,0,1,0,60.32V5.68A5.7,5.7,0,0,1,5.68,0Z"/><path class="b" d="M194.48,44.8V60.32A3.53,3.53,0,0,1,191,63.84H5.68a3.54,3.54,0,0,1-3.52-3.52V44.8Z"/><rect class="c" x="2.16" y="23.43" width="192.32" height="19.14"/><path class="d" d="M5.68,2.16H191a3.53,3.53,0,0,1,3.51,3.52V21.2H2.16V5.68A3.54,3.54,0,0,1,5.68,2.16Z"/><path class="e" d="M31.55,15.52A213.84,213.84,0,0,1,65.76,8.1,233.39,233.39,0,0,1,93.42,6.41v0H103.6v0a228.23,228.23,0,0,1,27.46,1.71,214.63,214.63,0,0,1,34,7.39,8.94,8.94,0,0,1,3.81,2.11,5.81,5.81,0,0,1,1.77,4.25V44.13a5.8,5.8,0,0,1-1.77,4.24,8.94,8.94,0,0,1-3.81,2.11,213.52,213.52,0,0,1-34,7.39,230.31,230.31,0,0,1-27.46,1.72v0H95.75A238.45,238.45,0,0,1,66.25,58a213,213,0,0,1-34.7-7.49,8.94,8.94,0,0,1-3.81-2.11A5.8,5.8,0,0,1,26,44.13V21.88a5.81,5.81,0,0,1,1.77-4.25A8.94,8.94,0,0,1,31.55,15.52Z"/><path class="f" d="M120.68,40.52c-.81-1.12,0-3,.53-4s1.49-2.52,2.89-2.25c.65,2.32-1.42,6.51-3.42,6.28ZM77,34.1c1,2.61-2.38,7.39-3.53,6.08-.94-1,1.25-6.62,3.53-6.08Zm7.2,6.09-.4-.89c-1.14.25-2.93,1.3-4.2,1-.69-1.58,4.29-12,5.24-15.15l-2.5.11c-.7,1.16-2,5.23-2.64,6.07-4.42-.46-6.26.81-8.06,3.17-2.92,3.82-.77,4.21-3,5.46-1.94,1.1-1.66.48-1.8.32-.81-.7,1.45-5.53,1.66-6.58.28-1.37-.43-2.47-1.7-2.4s-2.09.92-2.94,1.38c-3,1.59-.17-4.56-8.2,1.12-.62.44-2.18,1.34-2.48,1.64.06-.5,2.38-5.49,2.85-6.66.9-2.25,1.81-4.59,2.59-6.88-2.92-.19-11.6,1.31-14.24,3.67-5,4.45,1,10.34,4.89,5.81-.95-.68-2.41,0-2.63-1.77a3.2,3.2,0,0,1,1.16-3.13c1-.76,5.35-1.55,6.89-1.84a33.09,33.09,0,0,1-1.16,3.26c-1.72,4.79-3.83,12.11-10,12.3-3.2.1-4.12-1.33-5.25-3.52a4.09,4.09,0,0,0-.59,3.63,4,4,0,0,0,2.21,2.29c4.78,2.31,9-1.58,12.4-4.21.85-.66,4-3.89,5.67-3.09.92,1.82-1.74,5.65-1.79,7.54l3.15.06c.56-1.56,1-3.26,1.56-4.9.46-1.39,1.11-3.88,2.93-2.62.71,1.87-2.27,5.79-.64,7.1s5.49-1.36,6.39-1.91c.71,1,.7,2.29,2.52,2.59A4.92,4.92,0,0,0,75.87,42c.52.64.39,1.27,1.58,1.16s4.65-2.39,6.72-3ZM144,37.52c-.14-1.64,1.67-3.91,3-3.85.43,1-.32,2-.8,2.6S145,37.62,144,37.52ZM96.55,33.61l.36,1.11c1-.28,2.08-.92,3.07-.65.31,1.88-2.54,7-3,9.2l3.1-.06a39.5,39.5,0,0,0,1.73-4.69c.49-1.31,1.07-3.87,2.87-3.24,1.06,2.1-1.83,5.87-2,7.93l3.54,0c.65-1.89,1.39-4.23,2.16-6.1.38-.92.78-2.37,2.16-2,1.56.44-1.14,3.37-1.11,6a1.9,1.9,0,0,0,2,2.07c1.54-.15,4.13-2.27,5.45-2.56.61,1.36.74,2.22,2.36,2.47S121.9,42.58,123,42l.09.11.23.33c.33.48.51.84,1.3.92,2.61.26,6.47-3.91,8-5.89,1.68-2.23,1-2.06,3.16-2.25-.47,2-2.81,5.32-.83,7.3s5.91-.69,7.11-1.39c1.1,1.22,1.69,2.3,4.31,2.18,2.07-.09,3.22-.93,4.88-1.41,2,3.32,8.61.06,8.36-2-.86-.16-1.85,1-2.72,1.49-1.21.65-2.44.24-2.47-1.17a44.63,44.63,0,0,1,2-6.5l2,0,.66-2.27-1.4,0c.26-2.38,1.52-4.42,2-6.53l-2.81.11-2.25,6.23-2.05.12L152,33.68l1.62,0a16.66,16.66,0,0,1-2.75,6.61c-1.17,1.46-5.35,2.33-6.11-.22,1-1.1,2.69-1.35,4-3.66,3.35-5.79-3.33-6.49-6-2.46-1.71,2.52-1.18,3.3-1.09,6.28-3.36,1.87-4.54,2.24-4.24-1.05s.82-2.84,1.37-3.43a1.27,1.27,0,0,0,.12-1.72c-.53-.55-1.45-.06-2.44-.42-.63-1.57.45-1.83.88-2.68a17.31,17.31,0,0,1-1.78-.15c-.72-.27-.32-.6-.89-.78-.8.3-.85.33-1.13,1.22-.81,2.56-.51,3.12-1.92,5.09-.76,1.07-3.34,4.68-5.12,4-.82-1.09,2.31-7.42,2.7-9-3.19-.24-2.71.36-3.16.86-2.94-1.33-4.49-.2-6.29,1.4-2.59,2.3-2.7,5.61-3,6-.79.51-2.38,1.21-3.54.79-.34-1.33,1.72-5.21,2.06-6.79s-.61-2.55-2.29-2.12c-1.26.33-1.74,1.5-2.9,1.65-1-.69-1-2.13-3-1.79-1.41.24-1.5,1.34-3.09,1.66a.66.66,0,0,1-.07-.15l-.18-.44c-.08-.22-.26-.9-.61-1.09C101.45,31.05,98.24,33.12,96.55,33.61Z"/><path class="d" d="M90.28,32.7a3.91,3.91,0,1,1-2.78,1.14,3.9,3.9,0,0,1,2.78-1.14Zm0-3.39a7.31,7.31,0,1,0,5.16,2.14,7.29,7.29,0,0,0-5.16-2.14ZM94.87,32a6.49,6.49,0,1,0,1.9,4.59A6.46,6.46,0,0,0,94.87,32Zm-4.59-1a5.62,5.62,0,1,0,4,1.65,5.58,5.58,0,0,0-4-1.65Zm3.39,2.22a4.79,4.79,0,1,0,1.41,3.4,4.78,4.78,0,0,0-1.41-3.4Zm-1.19,1.2a3.11,3.11,0,0,0-4.4,0,3.11,3.11,0,0,0,0,4.4,3.11,3.11,0,0,0,4.4-4.4Z"/><path class="d" d="M32.46,18.63c25.48-7.55,43-9,64.21-9h3.68c21,0,38.5,1.49,63.84,9,1.71.51,3.24,1.46,3.24,3.25V44.13c0,1.78-1.53,2.73-3.24,3.24-25.34,7.51-42.81,9-63.84,9h-2.7c-21.64,0-39.32-1.33-65.19-9-1.71-.51-3.25-1.46-3.25-3.24V21.88c0-1.79,1.54-2.74,3.25-3.25ZM97.13,14.5c-19.8.08-37.54.83-60.75,6.83-1.73.45-3.24,1.47-3.24,3.25V41.42c0,1.79,1.51,2.8,3.24,3.25,23,5.95,40.67,6.74,60.29,6.83H100c19.62-.09,37.26-.88,60.29-6.83,1.72-.45,3.24-1.46,3.24-3.25V24.58c0-1.78-1.52-2.8-3.24-3.25-23.21-6-41-6.75-60.75-6.83Z"/></svg>