<svg xmlns="http://www.w3.org/2000/svg" viewBox="0 0 200.7 66"><defs><style>.a{fill:#4d3490;}</style></defs><title>Payment Gateway</title><path class="a" d="M168.12,0A32.84,32.84,0,1,0,200.7,32.84,32.71,32.71,0,0,0,168.12,0Zm0,55.06c-11.22,0-20.32-10-20.32-22.22s9.1-22.22,20.32-22.22,20.32,10,20.32,22.22S179.34,55.06,168.12,55.06Z"/><path class="a" d="M32.58,0A32.84,32.84,0,1,0,65.16,32.84,32.71,32.71,0,0,0,32.58,0Zm0,55.06c-11.22,0-20.32-10-20.32-22.22s9.1-22.22,20.32-22.22,20.32,10,20.32,22.22S43.81,55.06,32.58,55.06Z"/><path class="a" d="M110.76,12.5h6.5l-14.5,35.59L87.62,12.5h5.86V1.88H67.8V12.5h6.58l19.93,47A10.59,10.59,0,0,0,104.07,66h2.65l22.67-53.5L131.33,8V1.88H110.76Z"/></svg>